  0
SECTION
  2
HEADER
  9
$ACADVER
  1
AC1009
  9
$FILLMODE
 70
0
  9
$EXTMIN
 10
-1.0160
 20
-1.0160
 30
0.0000
  9
$EXTMAX
 10
95.9866
 20
90.2716
 30
0.0000
  0
ENDSEC
  0
SECTION
  2
TABLES
  0
TABLE
  2
LTYPE
 70
1
  0
LTYPE
  2
CONTINUOUS
 70
64
  3
Solid line
 72
65
 73
0
 40
0
  0
ENDTAB
  0
TABLE
  2
LAYER
 70
255
  0
LAYER
  2
20
 70
64
 62
30
  6
CONTINUOUS
  0
LAYER
  2
21
 70
64
 62
253
  6
CONTINUOUS
  0
LAYER
  2
25
 70
64
 62
253
  6
CONTINUOUS
  0
LAYER
  2
44
 70
64
 62
253
  6
CONTINUOUS
  0
ENDTAB
  0
ENDSEC
  0
SECTION
  2
BLOCKS
  0
BLOCK
  8
0
  2
RECT
 70
64
 10
0.0000
 20
0.0000
 30
0.0000
  3
RECT
  0
SOLID
  8
0
 10
-0.5000
 20
-0.5000
 30
0.0000
 11
0.5000
 21
-0.5000
 31
0.0000
 12
-0.5000
 22
0.5000
 32
0.0000
 13
0.5000
 23
0.5000
 33
0.0000
  0
ENDBLK
  8
0
  0
BLOCK
  8
0
  2
PIE
 70
64
 10
0.0000
 20
0.0000
 30
0.0000
  3
PIE
  0
CIRCLE
  8
0
 10
0.0000
 20
0.0000
 30
0.0000
 40
0.5000
  0
ENDBLK
  8
0
  0
BLOCK
  8
0
  2
OCTAGONP
 70
64
 10
0.0000
 20
0.0000
 30
0.0000
  3
OCTAGONP
  0
POLYLINE
  8
0
 66
1
 10
0.0000
 20
0.0000
 30
0.0000
 40
0.0000
 41
0.0000
 70
1
  0
VERTEX
  8
0
 10
-0.5000
 20
-0.2071
 30
0.0000
  0
VERTEX
  8
0
 10
-0.5000
 20
0.2071
 30
0.0000
  0
VERTEX
  8
0
 10
-0.2071
 20
0.5000
 30
0.0000
  0
VERTEX
  8
0
 10
0.2071
 20
0.5000
 30
0.0000
  0
VERTEX
  8
0
 10
0.5000
 20
0.2071
 30
0.0000
  0
VERTEX
  8
0
 10
0.5000
 20
-0.2071
 30
0.0000
  0
VERTEX
  8
0
 10
0.2071
 20
-0.5000
 30
0.0000
  0
VERTEX
  8
0
 10
-0.2071
 20
-0.5000
 30
0.0000
  0
SEQEND
  8
0
  0
ENDBLK
  8
0
  0
BLOCK
  8
0
  2
SQUAREP
 70
64
 10
0.0000
 20
0.0000
 30
0.0000
  3
SQUAREP
  0
SOLID
  8
0
 10
-0.5000
 20
-0.5000
 30
0.0000
 11
0.5000
 21
-0.5000
 31
0.0000
 12
-0.5000
 22
0.5000
 32
0.0000
 13
0.5000
 23
0.5000
 33
0.0000
  0
ENDBLK
  8
0
  0
BLOCK
  8
0
  2
ROUNDP
 70
64
 10
0.0000
 20
0.0000
 30
0.0000
  3
ROUNDP
  0
CIRCLE
  8
0
 10
0.0000
 20
0.0000
 30
0.0000
 40
0.5000
  0
ENDBLK
  8
0
  0
BLOCK
  8
0
  2
ANNULUSP
 70
64
 10
0.0000
 20
0.0000
 30
0.0000
  3
ANNULUSP
  0
CIRCLE
  8
0
 10
0.0000
 20
0.0000
 30
0.0000
 40
0.5000
  0
ENDBLK
  8
0
  0
BLOCK
  8
0
  2
THERMALP
 70
64
 10
0.0000
 20
0.0000
 30
0.0000
  3
THERMALP
  0
LINE
  8
0
 10
-0.2379
 20
0.4500
 30
0.0000
 11
0.2379
 21
0.4500
 31
0.0000
  0
LINE
  8
0
 10
0.4500
 20
0.2379
 30
0.0000
 11
0.4500
 21
-0.2379
 31
0.0000
  0
LINE
  8
0
 10
0.2379
 20
-0.4500
 30
0.0000
 11
-0.2379
 21
-0.4500
 31
0.0000
  0
LINE
  8
0
 10
-0.4500
 20
-0.2379
 30
0.0000
 11
-0.4500
 21
0.2379
 31
0.0000
  0
ENDBLK
  8
0
  0
BLOCK
  8
0
  2
OCTAGONV
 70
64
 10
0.0000
 20
0.0000
 30
0.0000
  3
OCTAGONV
  0
POLYLINE
  8
0
 66
1
 10
0.0000
 20
0.0000
 30
0.0000
 40
0.0000
 41
0.0000
 70
1
  0
VERTEX
  8
0
 10
-0.5000
 20
-0.2071
 30
0.0000
  0
VERTEX
  8
0
 10
-0.5000
 20
0.2071
 30
0.0000
  0
VERTEX
  8
0
 10
-0.2071
 20
0.5000
 30
0.0000
  0
VERTEX
  8
0
 10
0.2071
 20
0.5000
 30
0.0000
  0
VERTEX
  8
0
 10
0.5000
 20
0.2071
 30
0.0000
  0
VERTEX
  8
0
 10
0.5000
 20
-0.2071
 30
0.0000
  0
VERTEX
  8
0
 10
0.2071
 20
-0.5000
 30
0.0000
  0
VERTEX
  8
0
 10
-0.2071
 20
-0.5000
 30
0.0000
  0
SEQEND
  8
0
  0
ENDBLK
  8
0
  0
BLOCK
  8
0
  2
SQUAREV
 70
64
 10
0.0000
 20
0.0000
 30
0.0000
  3
SQUAREV
  0
SOLID
  8
0
 10
-0.5000
 20
-0.5000
 30
0.0000
 11
0.5000
 21
-0.5000
 31
0.0000
 12
-0.5000
 22
0.5000
 32
0.0000
 13
0.5000
 23
0.5000
 33
0.0000
  0
ENDBLK
  8
0
  0
BLOCK
  8
0
  2
ROUNDV
 70
64
 10
0.0000
 20
0.0000
 30
0.0000
  3
ROUNDV
  0
CIRCLE
  8
0
 10
0.0000
 20
0.0000
 30
0.0000
 40
0.5000
  0
ENDBLK
  8
0
  0
BLOCK
  8
0
  2
ANNULUSV
 70
64
 10
0.0000
 20
0.0000
 30
0.0000
  3
ANNULUSV
  0
CIRCLE
  8
0
 10
0.0000
 20
0.0000
 30
0.0000
 40
0.5000
  0
ENDBLK
  8
0
  0
BLOCK
  8
0
  2
THERMALV
 70
64
 10
0.0000
 20
0.0000
 30
0.0000
  3
THERMALV
  0
LINE
  8
0
 10
-0.2379
 20
0.4500
 30
0.0000
 11
0.2379
 21
0.4500
 31
0.0000
  0
LINE
  8
0
 10
0.4500
 20
0.2379
 30
0.0000
 11
0.4500
 21
-0.2379
 31
0.0000
  0
LINE
  8
0
 10
0.2379
 20
-0.4500
 30
0.0000
 11
-0.2379
 21
-0.4500
 31
0.0000
  0
LINE
  8
0
 10
-0.4500
 20
-0.2379
 30
0.0000
 11
-0.4500
 21
0.2379
 31
0.0000
  0
ENDBLK
  8
0
  0
ENDSEC
  0
SECTION
  2
ENTITIES
  0
ARC
  8
20
 10
5.0800
 20
85.0900
 30
0.0000
 40
5.0800
 50
90.0000
 51
180.0000
  0
ARC
  8
20
 10
90.8050
 20
85.0900
 30
0.0000
 40
5.0800
 50
0.0000
 51
90.0000
  0
ARC
  8
20
 10
90.8050
 20
5.0800
 30
0.0000
 40
5.0800
 50
270.0000
 51
0.0000
  0
ARC
  8
20
 10
5.0800
 20
5.0800
 30
0.0000
 40
5.0800
 50
180.0000
 51
270.0000
  0
LINE
  8
20
 10
5.0800
 20
0.0000
 30
0.0000
 11
90.8050
 21
0.0000
 31
0.0000
  0
LINE
  8
20
 10
95.8850
 20
5.0800
 30
0.0000
 11
95.8850
 21
85.0900
 31
0.0000
  0
LINE
  8
20
 10
0.0000
 20
85.0900
 30
0.0000
 11
0.0000
 21
5.0800
 31
0.0000
  0
ARC
  8
20
 10
5.0800
 20
85.0900
 30
0.0000
 40
5.0800
 50
0.0000
 51
90.0000
  0
LINE
  8
20
 10
10.1600
 20
85.0900
 30
0.0000
 11
10.1600
 21
78.1050
 31
0.0000
  0
ARC
  8
20
 10
12.0650
 20
78.1050
 30
0.0000
 40
1.9050
 50
180.0000
 51
270.0000
  0
LINE
  8
20
 10
12.0650
 20
76.2000
 30
0.0000
 11
25.4000
 21
76.2000
 31
0.0000
  0
ARC
  8
20
 10
25.4000
 20
78.1050
 30
0.0000
 40
1.9050
 50
270.0000
 51
0.0000
  0
LINE
  8
20
 10
27.3050
 20
78.1050
 30
0.0000
 11
27.3050
 21
85.0900
 31
0.0000
  0
ARC
  8
20
 10
32.3850
 20
85.0900
 30
0.0000
 40
5.0800
 50
90.0000
 51
180.0000
  0
LINE
  8
20
 10
32.3850
 20
90.1700
 30
0.0000
 11
90.8050
 21
90.1700
 31
0.0000
  0
TEXT
  7
ISOCP
  8
25
 10
45.9740
 20
28.7020
 30
0.0000
 40
1.2700
  1
C1
 72
2
 73
3
 11
45.9740
 21
28.7020
 31
0.0000
  0
TEXT
  7
ISOCP
  8
25
 10
43.8150
 20
60.1980
 30
0.0000
 40
1.2700
  1
C2
  0
TEXT
  7
ISOCP
  8
25
 10
59.8170
 20
9.2710
 30
0.0000
 40
1.2700
  1
C3
 72
2
 73
3
 11
59.8170
 21
9.2710
 31
0.0000
  0
TEXT
  7
ISOCP
  8
25
 10
59.8170
 20
2.9210
 30
0.0000
 40
1.2700
  1
C4
 72
2
 73
3
 11
59.8170
 21
2.9210
 31
0.0000
  0
LINE
  8
21
 10
6.3500
 20
11.4300
 30
0.0000
 11
6.3500
 21
75.5300
 31
0.0000
  0
LINE
  8
21
 10
6.3500
 20
75.5300
 30
0.0000
 11
39.2500
 21
75.5300
 31
0.0000
  0
LINE
  8
21
 10
39.2500
 20
75.5300
 30
0.0000
 11
39.2500
 21
11.4300
 31
0.0000
  0
LINE
  8
21
 10
39.2500
 20
11.4300
 30
0.0000
 11
6.3500
 21
11.4300
 31
0.0000
  0
TEXT
  7
ISOCP
  8
21
 10
6.3500
 20
76.2000
 30
0.0000
 40
1.2700
  1
LITHIUM
  0
CIRCLE
  8
20
 10
9.2500
 20
71.4300
 30
0.0000
 40
1.1250
  0
CIRCLE
  8
20
 10
9.2500
 20
41.4300
 30
0.0000
 40
1.1250
  0
CIRCLE
  8
20
 10
37.2500
 20
71.4300
 30
0.0000
 40
1.1250
  0
CIRCLE
  8
20
 10
37.2500
 20
41.4300
 30
0.0000
 40
1.1250
  0
LINE
  8
21
 10
45.0100
 20
83.8200
 30
0.0000
 11
45.0100
 21
8.8200
 31
0.0000
  0
LINE
  8
21
 10
45.0100
 20
8.8200
 30
0.0000
 11
80.0100
 21
8.8200
 31
0.0000
  0
LINE
  8
21
 10
80.0100
 20
8.8200
 30
0.0000
 11
80.0100
 21
83.8200
 31
0.0000
  0
LINE
  8
21
 10
80.0100
 20
83.8200
 30
0.0000
 11
45.0100
 21
83.8200
 31
0.0000
  0
CIRCLE
  8
20
 10
49.5100
 20
79.3200
 30
0.0000
 40
1.0500
  0
CIRCLE
  8
20
 10
49.5100
 20
13.3200
 30
0.0000
 40
1.0500
  0
CIRCLE
  8
20
 10
75.5100
 20
79.3200
 30
0.0000
 40
1.0500
  0
CIRCLE
  8
20
 10
75.5100
 20
13.3200
 30
0.0000
 40
1.0500
  0
CIRCLE
  8
20
 10
73.4140
 20
19.0500
 30
0.0000
 40
0.4826
  0
CIRCLE
  8
20
 10
70.8740
 20
19.0500
 30
0.0000
 40
0.4826
  0
CIRCLE
  8
20
 10
68.3340
 20
19.0500
 30
0.0000
 40
0.4826
  0
CIRCLE
  8
20
 10
65.7940
 20
19.0500
 30
0.0000
 40
0.4826
  0
CIRCLE
  8
20
 10
63.2540
 20
19.0500
 30
0.0000
 40
0.4826
  0
CIRCLE
  8
20
 10
60.7140
 20
19.0500
 30
0.0000
 40
0.4826
  0
CIRCLE
  8
20
 10
58.1740
 20
19.0500
 30
0.0000
 40
0.4826
  0
CIRCLE
  8
20
 10
55.6340
 20
19.0500
 30
0.0000
 40
0.4826
  0
CIRCLE
  8
20
 10
53.0940
 20
19.0500
 30
0.0000
 40
0.4826
  0
CIRCLE
  8
20
 10
50.5540
 20
19.0500
 30
0.0000
 40
0.4826
  0
CIRCLE
  8
20
 10
50.5540
 20
21.5900
 30
0.0000
 40
0.4826
  0
CIRCLE
  8
20
 10
53.0940
 20
21.5900
 30
0.0000
 40
0.4826
  0
CIRCLE
  8
20
 10
55.6340
 20
21.5900
 30
0.0000
 40
0.4826
  0
CIRCLE
  8
20
 10
58.1740
 20
21.5900
 30
0.0000
 40
0.4826
  0
CIRCLE
  8
20
 10
60.7140
 20
21.5900
 30
0.0000
 40
0.4826
  0
CIRCLE
  8
20
 10
63.2540
 20
21.5900
 30
0.0000
 40
0.4826
  0
CIRCLE
  8
20
 10
65.7940
 20
21.5900
 30
0.0000
 40
0.4826
  0
CIRCLE
  8
20
 10
68.3340
 20
21.5900
 30
0.0000
 40
0.4826
  0
CIRCLE
  8
20
 10
70.8740
 20
21.5900
 30
0.0000
 40
0.4826
  0
CIRCLE
  8
20
 10
73.4140
 20
21.5900
 30
0.0000
 40
0.4826
  0
LINE
  8
21
 10
48.7680
 20
16.2687
 30
0.0000
 11
48.7680
 21
24.3713
 31
0.0000
  0
LINE
  8
21
 10
48.7680
 20
24.3713
 30
0.0000
 11
75.1840
 21
24.3713
 31
0.0000
  0
LINE
  8
21
 10
75.1840
 20
24.3713
 30
0.0000
 11
75.1840
 21
16.2687
 31
0.0000
  0
LINE
  8
21
 10
75.1840
 20
16.2687
 30
0.0000
 11
48.7680
 21
16.2687
 31
0.0000
  0
TEXT
  7
ISOCP
  8
21
 10
51.1810
 20
15.2400
 30
0.0000
 40
1.2700
  1
2
 72
2
 73
3
 11
51.1810
 21
15.2400
 31
0.0000
  0
TEXT
  7
ISOCP
  8
21
 10
51.1810
 20
26.6700
 30
0.0000
 40
1.2700
  1
1
 72
2
 73
3
 11
51.1810
 21
26.6700
 31
0.0000
  0
TEXT
  7
ISOCP
  8
25
 10
74.6760
 20
15.6210
 30
0.0000
 40
1.2700
  1
PINAV_CONNECTOR
 72
2
 73
3
 11
74.6760
 21
15.6210
 31
0.0000
  0
CIRCLE
  8
20
 10
72.1360
 20
20.3200
 30
0.0000
 40
0.8890
  0
CIRCLE
  8
20
 10
51.8160
 20
20.3200
 30
0.0000
 40
0.8890
  0
LINE
  8
21
 10
0.0000
 20
0.0000
 30
0.0000
 11
95.8850
 21
0.0000
 31
0.0000
  0
LINE
  8
21
 10
95.8850
 20
0.0000
 30
0.0000
 11
95.8850
 21
90.1700
 31
0.0000
  0
LINE
  8
21
 10
95.8850
 20
90.1700
 30
0.0000
 11
0.0000
 21
90.1700
 31
0.0000
  0
LINE
  8
21
 10
0.0000
 20
90.1700
 30
0.0000
 11
0.0000
 21
0.0000
 31
0.0000
  0
TEXT
  7
ISOCP
  8
25
 10
82.5500
 20
77.9780
 30
0.0000
 40
1.2700
  1
1
  0
TEXT
  7
ISOCP
  8
25
 10
85.0900
 20
77.9780
 30
0.0000
 40
1.2700
  1
2
  0
TEXT
  7
ISOCP
  8
25
 10
86.8680
 20
77.9780
 30
0.0000
 40
1.2700
  1
53
  0
TEXT
  7
ISOCP
  8
25
 10
92.3290
 20
75.6920
 30
0.0000
 40
1.2700
  1
54
  0
TEXT
  7
ISOCP
  8
25
 10
82.1690
 20
9.6520
 30
0.0000
 40
1.2700
  1
51
  0
TEXT
  7
ISOCP
  8
25
 10
84.8360
 20
9.6520
 30
0.0000
 40
1.2700
  1
52
  0
CIRCLE
  8
44
 10
42.5450
 20
31.4960
 30
0.0000
 40
0.1270
  0
CIRCLE
  8
44
 10
42.6720
 20
56.7690
 30
0.0000
 40
0.4657
  0
CIRCLE
  8
44
 10
42.5450
 20
69.2150
 30
0.0000
 40
0.3810
  0
CIRCLE
  8
44
 10
42.5450
 20
66.0400
 30
0.0000
 40
0.3810
  0
CIRCLE
  8
44
 10
68.3260
 20
26.0350
 30
0.0000
 40
0.1270
  0
CIRCLE
  8
44
 10
58.1660
 20
26.0350
 30
0.0000
 40
0.1270
  0
CIRCLE
  8
44
 10
9.7790
 20
24.8920
 30
0.0000
 40
0.1270
  0
CIRCLE
  8
44
 10
41.9100
 20
24.8920
 30
0.0000
 40
0.1270
  0
CIRCLE
  8
44
 10
57.9120
 20
6.7310
 30
0.0000
 40
0.1905
  0
CIRCLE
  8
44
 10
57.9120
 20
4.1910
 30
0.0000
 40
0.1905
  0
ENDSEC
  0
EOF
