  0
SECTION
  2
HEADER
  9
$ACADVER
  1
AC1009
  9
$FILLMODE
 70
0
  9
$EXTMIN
 10
-1.0160
 20
-1.0160
 30
0.0000
  9
$EXTMAX
 10
95.9612
 20
90.2462
 30
0.0000
  0
ENDSEC
  0
SECTION
  2
TABLES
  0
TABLE
  2
LTYPE
 70
1
  0
LTYPE
  2
CONTINUOUS
 70
64
  3
Solid line
 72
65
 73
0
 40
0
  0
ENDTAB
  0
TABLE
  2
LAYER
 70
255
  0
LAYER
  2
17
 70
64
 62
82
  6
CONTINUOUS
  0
LAYER
  2
18
 70
64
 62
82
  6
CONTINUOUS
  0
LAYER
  2
20
 70
64
 62
30
  6
CONTINUOUS
  0
LAYER
  2
21
 70
64
 62
253
  6
CONTINUOUS
  0
LAYER
  2
44
 70
64
 62
253
  6
CONTINUOUS
  0
LAYER
  2
45
 70
64
 62
253
  6
CONTINUOUS
  0
ENDTAB
  0
ENDSEC
  0
SECTION
  2
BLOCKS
  0
BLOCK
  8
0
  2
RECT
 70
64
 10
0.0000
 20
0.0000
 30
0.0000
  3
RECT
  0
SOLID
  8
0
 10
-0.5000
 20
-0.5000
 30
0.0000
 11
0.5000
 21
-0.5000
 31
0.0000
 12
-0.5000
 22
0.5000
 32
0.0000
 13
0.5000
 23
0.5000
 33
0.0000
  0
ENDBLK
  8
0
  0
BLOCK
  8
0
  2
PIE
 70
64
 10
0.0000
 20
0.0000
 30
0.0000
  3
PIE
  0
CIRCLE
  8
0
 10
0.0000
 20
0.0000
 30
0.0000
 40
0.5000
  0
ENDBLK
  8
0
  0
BLOCK
  8
0
  2
OCTAGONP
 70
64
 10
0.0000
 20
0.0000
 30
0.0000
  3
OCTAGONP
  0
POLYLINE
  8
0
 66
1
 10
0.0000
 20
0.0000
 30
0.0000
 40
0.0000
 41
0.0000
 70
1
  0
VERTEX
  8
0
 10
-0.5000
 20
-0.2071
 30
0.0000
  0
VERTEX
  8
0
 10
-0.5000
 20
0.2071
 30
0.0000
  0
VERTEX
  8
0
 10
-0.2071
 20
0.5000
 30
0.0000
  0
VERTEX
  8
0
 10
0.2071
 20
0.5000
 30
0.0000
  0
VERTEX
  8
0
 10
0.5000
 20
0.2071
 30
0.0000
  0
VERTEX
  8
0
 10
0.5000
 20
-0.2071
 30
0.0000
  0
VERTEX
  8
0
 10
0.2071
 20
-0.5000
 30
0.0000
  0
VERTEX
  8
0
 10
-0.2071
 20
-0.5000
 30
0.0000
  0
SEQEND
  8
0
  0
ENDBLK
  8
0
  0
BLOCK
  8
0
  2
SQUAREP
 70
64
 10
0.0000
 20
0.0000
 30
0.0000
  3
SQUAREP
  0
SOLID
  8
0
 10
-0.5000
 20
-0.5000
 30
0.0000
 11
0.5000
 21
-0.5000
 31
0.0000
 12
-0.5000
 22
0.5000
 32
0.0000
 13
0.5000
 23
0.5000
 33
0.0000
  0
ENDBLK
  8
0
  0
BLOCK
  8
0
  2
ROUNDP
 70
64
 10
0.0000
 20
0.0000
 30
0.0000
  3
ROUNDP
  0
CIRCLE
  8
0
 10
0.0000
 20
0.0000
 30
0.0000
 40
0.5000
  0
ENDBLK
  8
0
  0
BLOCK
  8
0
  2
ANNULUSP
 70
64
 10
0.0000
 20
0.0000
 30
0.0000
  3
ANNULUSP
  0
CIRCLE
  8
0
 10
0.0000
 20
0.0000
 30
0.0000
 40
0.5000
  0
ENDBLK
  8
0
  0
BLOCK
  8
0
  2
THERMALP
 70
64
 10
0.0000
 20
0.0000
 30
0.0000
  3
THERMALP
  0
LINE
  8
0
 10
-0.2379
 20
0.4500
 30
0.0000
 11
0.2379
 21
0.4500
 31
0.0000
  0
LINE
  8
0
 10
0.4500
 20
0.2379
 30
0.0000
 11
0.4500
 21
-0.2379
 31
0.0000
  0
LINE
  8
0
 10
0.2379
 20
-0.4500
 30
0.0000
 11
-0.2379
 21
-0.4500
 31
0.0000
  0
LINE
  8
0
 10
-0.4500
 20
-0.2379
 30
0.0000
 11
-0.4500
 21
0.2379
 31
0.0000
  0
ENDBLK
  8
0
  0
BLOCK
  8
0
  2
OCTAGONV
 70
64
 10
0.0000
 20
0.0000
 30
0.0000
  3
OCTAGONV
  0
POLYLINE
  8
0
 66
1
 10
0.0000
 20
0.0000
 30
0.0000
 40
0.0000
 41
0.0000
 70
1
  0
VERTEX
  8
0
 10
-0.5000
 20
-0.2071
 30
0.0000
  0
VERTEX
  8
0
 10
-0.5000
 20
0.2071
 30
0.0000
  0
VERTEX
  8
0
 10
-0.2071
 20
0.5000
 30
0.0000
  0
VERTEX
  8
0
 10
0.2071
 20
0.5000
 30
0.0000
  0
VERTEX
  8
0
 10
0.5000
 20
0.2071
 30
0.0000
  0
VERTEX
  8
0
 10
0.5000
 20
-0.2071
 30
0.0000
  0
VERTEX
  8
0
 10
0.2071
 20
-0.5000
 30
0.0000
  0
VERTEX
  8
0
 10
-0.2071
 20
-0.5000
 30
0.0000
  0
SEQEND
  8
0
  0
ENDBLK
  8
0
  0
BLOCK
  8
0
  2
SQUAREV
 70
64
 10
0.0000
 20
0.0000
 30
0.0000
  3
SQUAREV
  0
SOLID
  8
0
 10
-0.5000
 20
-0.5000
 30
0.0000
 11
0.5000
 21
-0.5000
 31
0.0000
 12
-0.5000
 22
0.5000
 32
0.0000
 13
0.5000
 23
0.5000
 33
0.0000
  0
ENDBLK
  8
0
  0
BLOCK
  8
0
  2
ROUNDV
 70
64
 10
0.0000
 20
0.0000
 30
0.0000
  3
ROUNDV
  0
CIRCLE
  8
0
 10
0.0000
 20
0.0000
 30
0.0000
 40
0.5000
  0
ENDBLK
  8
0
  0
BLOCK
  8
0
  2
ANNULUSV
 70
64
 10
0.0000
 20
0.0000
 30
0.0000
  3
ANNULUSV
  0
CIRCLE
  8
0
 10
0.0000
 20
0.0000
 30
0.0000
 40
0.5000
  0
ENDBLK
  8
0
  0
BLOCK
  8
0
  2
THERMALV
 70
64
 10
0.0000
 20
0.0000
 30
0.0000
  3
THERMALV
  0
LINE
  8
0
 10
-0.2379
 20
0.4500
 30
0.0000
 11
0.2379
 21
0.4500
 31
0.0000
  0
LINE
  8
0
 10
0.4500
 20
0.2379
 30
0.0000
 11
0.4500
 21
-0.2379
 31
0.0000
  0
LINE
  8
0
 10
0.2379
 20
-0.4500
 30
0.0000
 11
-0.2379
 21
-0.4500
 31
0.0000
  0
LINE
  8
0
 10
-0.4500
 20
-0.2379
 30
0.0000
 11
-0.4500
 21
0.2379
 31
0.0000
  0
ENDBLK
  8
0
  0
ENDSEC
  0
SECTION
  2
ENTITIES
  0
LINE
  8
20
 10
0.0000
 20
85.0900
 30
0.0000
 11
0.0000
 21
5.0800
 31
0.0000
  0
ARC
  8
20
 10
5.0800
 20
5.0800
 30
0.0000
 40
5.0800
 50
180.0000
 51
270.0000
  0
LINE
  8
20
 10
5.0800
 20
0.0000
 30
0.0000
 11
90.8050
 21
0.0000
 31
0.0000
  0
ARC
  8
20
 10
90.8050
 20
5.0800
 30
0.0000
 40
5.0800
 50
270.0000
 51
0.0000
  0
LINE
  8
20
 10
95.8850
 20
5.0800
 30
0.0000
 11
95.8850
 21
85.0900
 31
0.0000
  0
ARC
  8
20
 10
90.8034
 20
85.0900
 30
0.0000
 40
5.0816
 50
0.0000
 51
91.4146
  0
ARC
  8
20
 10
5.0800
 20
85.0900
 30
0.0000
 40
5.0800
 50
90.0000
 51
180.0000
  0
LINE
  8
20
 10
5.0800
 20
90.1700
 30
0.0000
 11
90.6780
 21
90.1700
 31
0.0000
  0
LINE
  8
21
 10
61.0350
 20
8.8900
 30
0.0000
 11
61.0350
 21
83.8900
 31
0.0000
  0
LINE
  8
21
 10
61.0350
 20
83.8900
 30
0.0000
 11
26.0350
 21
83.8900
 31
0.0000
  0
LINE
  8
21
 10
26.0350
 20
83.8900
 30
0.0000
 11
26.0350
 21
8.8900
 31
0.0000
  0
LINE
  8
21
 10
26.0350
 20
8.8900
 30
0.0000
 11
61.0350
 21
8.8900
 31
0.0000
  0
CIRCLE
  8
20
 10
56.5350
 20
13.3900
 30
0.0000
 40
1.0500
  0
CIRCLE
  8
20
 10
56.5350
 20
79.3900
 30
0.0000
 40
1.0500
  0
CIRCLE
  8
20
 10
30.5350
 20
13.3900
 30
0.0000
 40
1.0500
  0
CIRCLE
  8
20
 10
30.5350
 20
79.3900
 30
0.0000
 40
1.0500
  0
CIRCLE
  8
20
 10
33.1050
 20
73.6600
 30
0.0000
 40
0.4826
  0
CIRCLE
  8
20
 10
35.6450
 20
73.6600
 30
0.0000
 40
0.4826
  0
CIRCLE
  8
20
 10
38.1850
 20
73.6600
 30
0.0000
 40
0.4826
  0
CIRCLE
  8
20
 10
40.7250
 20
73.6600
 30
0.0000
 40
0.4826
  0
CIRCLE
  8
20
 10
43.2650
 20
73.6600
 30
0.0000
 40
0.4826
  0
CIRCLE
  8
20
 10
45.8050
 20
73.6600
 30
0.0000
 40
0.4826
  0
CIRCLE
  8
20
 10
48.3450
 20
73.6600
 30
0.0000
 40
0.4826
  0
CIRCLE
  8
20
 10
50.8850
 20
73.6600
 30
0.0000
 40
0.4826
  0
CIRCLE
  8
20
 10
53.4250
 20
73.6600
 30
0.0000
 40
0.4826
  0
CIRCLE
  8
20
 10
55.9650
 20
73.6600
 30
0.0000
 40
0.4826
  0
CIRCLE
  8
20
 10
55.9650
 20
71.1200
 30
0.0000
 40
0.4826
  0
CIRCLE
  8
20
 10
53.4250
 20
71.1200
 30
0.0000
 40
0.4826
  0
CIRCLE
  8
20
 10
50.8850
 20
71.1200
 30
0.0000
 40
0.4826
  0
CIRCLE
  8
20
 10
48.3450
 20
71.1200
 30
0.0000
 40
0.4826
  0
CIRCLE
  8
20
 10
45.8050
 20
71.1200
 30
0.0000
 40
0.4826
  0
CIRCLE
  8
20
 10
43.2650
 20
71.1200
 30
0.0000
 40
0.4826
  0
CIRCLE
  8
20
 10
40.7250
 20
71.1200
 30
0.0000
 40
0.4826
  0
CIRCLE
  8
20
 10
38.1850
 20
71.1200
 30
0.0000
 40
0.4826
  0
CIRCLE
  8
20
 10
35.6450
 20
71.1200
 30
0.0000
 40
0.4826
  0
CIRCLE
  8
20
 10
33.1050
 20
71.1200
 30
0.0000
 40
0.4826
  0
LINE
  8
21
 10
57.7430
 20
76.2000
 30
0.0000
 11
57.7430
 21
68.5800
 31
0.0000
  0
LINE
  8
21
 10
57.7430
 20
68.5800
 30
0.0000
 11
31.3270
 21
68.5800
 31
0.0000
  0
LINE
  8
21
 10
31.3270
 20
68.5800
 30
0.0000
 11
31.3270
 21
76.2000
 31
0.0000
  0
LINE
  8
21
 10
31.3270
 20
76.2000
 30
0.0000
 11
57.7430
 21
76.2000
 31
0.0000
  0
TEXT
  7
ISOCP
  8
21
 10
55.3300
 20
77.4700
 30
0.0000
 40
1.2700
  1
2
  0
TEXT
  7
ISOCP
  8
21
 10
55.3300
 20
66.0400
 30
0.0000
 40
1.2700
  1
1
  0
INSERT
  8
17
  2
ROUNDP
 10
55.9650
 20
68.5800
 30
0.0000
 41
0.8763
 42
0.8763
 43
1.0000
 50
0.0000
  0
INSERT
  8
17
  2
ROUNDP
 10
55.9650
 20
68.5800
 30
0.0000
 41
0.8763
 42
0.8763
 43
1.0000
 50
0.0000
  0
CIRCLE
  8
44
 10
55.9650
 20
68.5800
 30
0.0000
 40
0.2921
  0
INSERT
  8
17
  2
ROUNDP
 10
55.9650
 20
76.2000
 30
0.0000
 41
0.8763
 42
0.8763
 43
1.0000
 50
0.0000
  0
INSERT
  8
17
  2
ROUNDP
 10
55.9650
 20
76.2000
 30
0.0000
 41
0.8763
 42
0.8763
 43
1.0000
 50
0.0000
  0
CIRCLE
  8
44
 10
55.9650
 20
76.2000
 30
0.0000
 40
0.2921
  0
INSERT
  8
17
  2
ROUNDP
 10
53.4250
 20
68.5800
 30
0.0000
 41
0.8763
 42
0.8763
 43
1.0000
 50
0.0000
  0
INSERT
  8
17
  2
ROUNDP
 10
53.4250
 20
68.5800
 30
0.0000
 41
0.8763
 42
0.8763
 43
1.0000
 50
0.0000
  0
CIRCLE
  8
44
 10
53.4250
 20
68.5800
 30
0.0000
 40
0.2921
  0
INSERT
  8
17
  2
ROUNDP
 10
53.4250
 20
76.2000
 30
0.0000
 41
0.8763
 42
0.8763
 43
1.0000
 50
0.0000
  0
INSERT
  8
17
  2
ROUNDP
 10
53.4250
 20
76.2000
 30
0.0000
 41
0.8763
 42
0.8763
 43
1.0000
 50
0.0000
  0
CIRCLE
  8
44
 10
53.4250
 20
76.2000
 30
0.0000
 40
0.2921
  0
INSERT
  8
17
  2
ROUNDP
 10
50.8850
 20
68.5800
 30
0.0000
 41
0.8763
 42
0.8763
 43
1.0000
 50
0.0000
  0
INSERT
  8
17
  2
ROUNDP
 10
50.8850
 20
68.5800
 30
0.0000
 41
0.8763
 42
0.8763
 43
1.0000
 50
0.0000
  0
CIRCLE
  8
44
 10
50.8850
 20
68.5800
 30
0.0000
 40
0.2921
  0
INSERT
  8
17
  2
ROUNDP
 10
50.8850
 20
76.2000
 30
0.0000
 41
0.8763
 42
0.8763
 43
1.0000
 50
0.0000
  0
INSERT
  8
17
  2
ROUNDP
 10
50.8850
 20
76.2000
 30
0.0000
 41
0.8763
 42
0.8763
 43
1.0000
 50
0.0000
  0
CIRCLE
  8
44
 10
50.8850
 20
76.2000
 30
0.0000
 40
0.2921
  0
INSERT
  8
17
  2
ROUNDP
 10
48.3450
 20
68.5800
 30
0.0000
 41
0.8763
 42
0.8763
 43
1.0000
 50
0.0000
  0
INSERT
  8
17
  2
ROUNDP
 10
48.3450
 20
68.5800
 30
0.0000
 41
0.8763
 42
0.8763
 43
1.0000
 50
0.0000
  0
CIRCLE
  8
44
 10
48.3450
 20
68.5800
 30
0.0000
 40
0.2921
  0
INSERT
  8
17
  2
ROUNDP
 10
48.3450
 20
76.2000
 30
0.0000
 41
0.8763
 42
0.8763
 43
1.0000
 50
0.0000
  0
INSERT
  8
17
  2
ROUNDP
 10
48.3450
 20
76.2000
 30
0.0000
 41
0.8763
 42
0.8763
 43
1.0000
 50
0.0000
  0
CIRCLE
  8
44
 10
48.3450
 20
76.2000
 30
0.0000
 40
0.2921
  0
INSERT
  8
17
  2
ROUNDP
 10
45.8050
 20
68.5800
 30
0.0000
 41
0.8763
 42
0.8763
 43
1.0000
 50
0.0000
  0
INSERT
  8
17
  2
ROUNDP
 10
45.8050
 20
68.5800
 30
0.0000
 41
0.8763
 42
0.8763
 43
1.0000
 50
0.0000
  0
CIRCLE
  8
44
 10
45.8050
 20
68.5800
 30
0.0000
 40
0.2921
  0
INSERT
  8
17
  2
ROUNDP
 10
45.8050
 20
76.2000
 30
0.0000
 41
0.8763
 42
0.8763
 43
1.0000
 50
0.0000
  0
INSERT
  8
17
  2
ROUNDP
 10
45.8050
 20
76.2000
 30
0.0000
 41
0.8763
 42
0.8763
 43
1.0000
 50
0.0000
  0
CIRCLE
  8
44
 10
45.8050
 20
76.2000
 30
0.0000
 40
0.2921
  0
INSERT
  8
17
  2
ROUNDP
 10
43.2650
 20
68.5800
 30
0.0000
 41
0.8763
 42
0.8763
 43
1.0000
 50
0.0000
  0
INSERT
  8
17
  2
ROUNDP
 10
43.2650
 20
68.5800
 30
0.0000
 41
0.8763
 42
0.8763
 43
1.0000
 50
0.0000
  0
CIRCLE
  8
44
 10
43.2650
 20
68.5800
 30
0.0000
 40
0.2921
  0
INSERT
  8
17
  2
ROUNDP
 10
43.2650
 20
76.2000
 30
0.0000
 41
0.8763
 42
0.8763
 43
1.0000
 50
0.0000
  0
INSERT
  8
17
  2
ROUNDP
 10
43.2650
 20
76.2000
 30
0.0000
 41
0.8763
 42
0.8763
 43
1.0000
 50
0.0000
  0
CIRCLE
  8
44
 10
43.2650
 20
76.2000
 30
0.0000
 40
0.2921
  0
INSERT
  8
17
  2
ROUNDP
 10
40.7250
 20
68.5800
 30
0.0000
 41
0.8763
 42
0.8763
 43
1.0000
 50
0.0000
  0
INSERT
  8
17
  2
ROUNDP
 10
40.7250
 20
68.5800
 30
0.0000
 41
0.8763
 42
0.8763
 43
1.0000
 50
0.0000
  0
CIRCLE
  8
44
 10
40.7250
 20
68.5800
 30
0.0000
 40
0.2921
  0
INSERT
  8
17
  2
ROUNDP
 10
40.7250
 20
76.2000
 30
0.0000
 41
0.8763
 42
0.8763
 43
1.0000
 50
0.0000
  0
INSERT
  8
17
  2
ROUNDP
 10
40.7250
 20
76.2000
 30
0.0000
 41
0.8763
 42
0.8763
 43
1.0000
 50
0.0000
  0
CIRCLE
  8
44
 10
40.7250
 20
76.2000
 30
0.0000
 40
0.2921
  0
INSERT
  8
17
  2
ROUNDP
 10
38.1850
 20
68.5800
 30
0.0000
 41
0.8763
 42
0.8763
 43
1.0000
 50
0.0000
  0
INSERT
  8
17
  2
ROUNDP
 10
38.1850
 20
68.5800
 30
0.0000
 41
0.8763
 42
0.8763
 43
1.0000
 50
0.0000
  0
CIRCLE
  8
44
 10
38.1850
 20
68.5800
 30
0.0000
 40
0.2921
  0
INSERT
  8
17
  2
ROUNDP
 10
38.1850
 20
76.2000
 30
0.0000
 41
0.8763
 42
0.8763
 43
1.0000
 50
0.0000
  0
INSERT
  8
17
  2
ROUNDP
 10
38.1850
 20
76.2000
 30
0.0000
 41
0.8763
 42
0.8763
 43
1.0000
 50
0.0000
  0
CIRCLE
  8
44
 10
38.1850
 20
76.2000
 30
0.0000
 40
0.2921
  0
INSERT
  8
17
  2
ROUNDP
 10
35.6450
 20
68.5800
 30
0.0000
 41
0.8763
 42
0.8763
 43
1.0000
 50
0.0000
  0
INSERT
  8
17
  2
ROUNDP
 10
35.6450
 20
68.5800
 30
0.0000
 41
0.8763
 42
0.8763
 43
1.0000
 50
0.0000
  0
CIRCLE
  8
44
 10
35.6450
 20
68.5800
 30
0.0000
 40
0.2921
  0
INSERT
  8
17
  2
ROUNDP
 10
35.6450
 20
76.2000
 30
0.0000
 41
0.8763
 42
0.8763
 43
1.0000
 50
0.0000
  0
INSERT
  8
17
  2
ROUNDP
 10
35.6450
 20
76.2000
 30
0.0000
 41
0.8763
 42
0.8763
 43
1.0000
 50
0.0000
  0
CIRCLE
  8
44
 10
35.6450
 20
76.2000
 30
0.0000
 40
0.2921
  0
INSERT
  8
17
  2
ROUNDP
 10
33.1050
 20
68.5800
 30
0.0000
 41
0.8763
 42
0.8763
 43
1.0000
 50
0.0000
  0
INSERT
  8
17
  2
ROUNDP
 10
33.1050
 20
68.5800
 30
0.0000
 41
0.8763
 42
0.8763
 43
1.0000
 50
0.0000
  0
CIRCLE
  8
44
 10
33.1050
 20
68.5800
 30
0.0000
 40
0.2921
  0
INSERT
  8
17
  2
ROUNDP
 10
33.1050
 20
76.2000
 30
0.0000
 41
0.8763
 42
0.8763
 43
1.0000
 50
0.0000
  0
INSERT
  8
17
  2
ROUNDP
 10
33.1050
 20
76.2000
 30
0.0000
 41
0.8763
 42
0.8763
 43
1.0000
 50
0.0000
  0
CIRCLE
  8
44
 10
33.1050
 20
76.2000
 30
0.0000
 40
0.2921
  0
LINE
  8
21
 10
0.0000
 20
0.0000
 30
0.0000
 11
95.8850
 21
0.0000
 31
0.0000
  0
LINE
  8
21
 10
95.8850
 20
0.0000
 30
0.0000
 11
95.8850
 21
90.1700
 31
0.0000
  0
LINE
  8
21
 10
95.8850
 20
90.1700
 30
0.0000
 11
0.0000
 21
90.1700
 31
0.0000
  0
LINE
  8
21
 10
0.0000
 20
90.1700
 30
0.0000
 11
0.0000
 21
0.0000
 31
0.0000
  0
INSERT
  8
17
  2
ROUNDP
 10
83.1850
 20
76.2000
 30
0.0000
 41
1.5240
 42
1.5240
 43
1.0000
 50
0.0000
  0
INSERT
  8
17
  2
ROUNDP
 10
83.1850
 20
76.2000
 30
0.0000
 41
1.5240
 42
1.5240
 43
1.0000
 50
0.0000
  0
CIRCLE
  8
44
 10
83.1850
 20
76.2000
 30
0.0000
 40
0.5080
  0
INSERT
  8
17
  2
ROUNDP
 10
85.7250
 20
76.2000
 30
0.0000
 41
1.5240
 42
1.5240
 43
1.0000
 50
0.0000
  0
INSERT
  8
17
  2
ROUNDP
 10
85.7250
 20
76.2000
 30
0.0000
 41
1.5240
 42
1.5240
 43
1.0000
 50
0.0000
  0
CIRCLE
  8
44
 10
85.7250
 20
76.2000
 30
0.0000
 40
0.5080
  0
INSERT
  8
17
  2
ROUNDP
 10
83.1850
 20
73.6600
 30
0.0000
 41
1.5240
 42
1.5240
 43
1.0000
 50
0.0000
  0
INSERT
  8
17
  2
ROUNDP
 10
83.1850
 20
73.6600
 30
0.0000
 41
1.5240
 42
1.5240
 43
1.0000
 50
0.0000
  0
CIRCLE
  8
44
 10
83.1850
 20
73.6600
 30
0.0000
 40
0.5080
  0
INSERT
  8
17
  2
ROUNDP
 10
85.7250
 20
73.6600
 30
0.0000
 41
1.5240
 42
1.5240
 43
1.0000
 50
0.0000
  0
INSERT
  8
17
  2
ROUNDP
 10
85.7250
 20
73.6600
 30
0.0000
 41
1.5240
 42
1.5240
 43
1.0000
 50
0.0000
  0
CIRCLE
  8
44
 10
85.7250
 20
73.6600
 30
0.0000
 40
0.5080
  0
INSERT
  8
17
  2
ROUNDP
 10
83.1850
 20
71.1200
 30
0.0000
 41
1.5240
 42
1.5240
 43
1.0000
 50
0.0000
  0
INSERT
  8
17
  2
ROUNDP
 10
83.1850
 20
71.1200
 30
0.0000
 41
1.5240
 42
1.5240
 43
1.0000
 50
0.0000
  0
CIRCLE
  8
44
 10
83.1850
 20
71.1200
 30
0.0000
 40
0.5080
  0
INSERT
  8
17
  2
ROUNDP
 10
85.7250
 20
71.1200
 30
0.0000
 41
1.5240
 42
1.5240
 43
1.0000
 50
0.0000
  0
INSERT
  8
17
  2
ROUNDP
 10
85.7250
 20
71.1200
 30
0.0000
 41
1.5240
 42
1.5240
 43
1.0000
 50
0.0000
  0
CIRCLE
  8
44
 10
85.7250
 20
71.1200
 30
0.0000
 40
0.5080
  0
INSERT
  8
17
  2
ROUNDP
 10
83.1850
 20
68.5800
 30
0.0000
 41
1.5240
 42
1.5240
 43
1.0000
 50
0.0000
  0
INSERT
  8
17
  2
ROUNDP
 10
83.1850
 20
68.5800
 30
0.0000
 41
1.5240
 42
1.5240
 43
1.0000
 50
0.0000
  0
CIRCLE
  8
44
 10
83.1850
 20
68.5800
 30
0.0000
 40
0.5080
  0
INSERT
  8
17
  2
ROUNDP
 10
85.7250
 20
68.5800
 30
0.0000
 41
1.5240
 42
1.5240
 43
1.0000
 50
0.0000
  0
INSERT
  8
17
  2
ROUNDP
 10
85.7250
 20
68.5800
 30
0.0000
 41
1.5240
 42
1.5240
 43
1.0000
 50
0.0000
  0
CIRCLE
  8
44
 10
85.7250
 20
68.5800
 30
0.0000
 40
0.5080
  0
INSERT
  8
17
  2
ROUNDP
 10
83.1850
 20
66.0400
 30
0.0000
 41
1.5240
 42
1.5240
 43
1.0000
 50
0.0000
  0
INSERT
  8
17
  2
ROUNDP
 10
83.1850
 20
66.0400
 30
0.0000
 41
1.5240
 42
1.5240
 43
1.0000
 50
0.0000
  0
CIRCLE
  8
44
 10
83.1850
 20
66.0400
 30
0.0000
 40
0.5080
  0
INSERT
  8
17
  2
ROUNDP
 10
85.7250
 20
66.0400
 30
0.0000
 41
1.5240
 42
1.5240
 43
1.0000
 50
0.0000
  0
INSERT
  8
17
  2
ROUNDP
 10
85.7250
 20
66.0400
 30
0.0000
 41
1.5240
 42
1.5240
 43
1.0000
 50
0.0000
  0
CIRCLE
  8
44
 10
85.7250
 20
66.0400
 30
0.0000
 40
0.5080
  0
INSERT
  8
17
  2
ROUNDP
 10
83.1850
 20
63.5000
 30
0.0000
 41
1.5240
 42
1.5240
 43
1.0000
 50
0.0000
  0
INSERT
  8
17
  2
ROUNDP
 10
83.1850
 20
63.5000
 30
0.0000
 41
1.5240
 42
1.5240
 43
1.0000
 50
0.0000
  0
CIRCLE
  8
44
 10
83.1850
 20
63.5000
 30
0.0000
 40
0.5080
  0
INSERT
  8
17
  2
ROUNDP
 10
85.7250
 20
63.5000
 30
0.0000
 41
1.5240
 42
1.5240
 43
1.0000
 50
0.0000
  0
INSERT
  8
17
  2
ROUNDP
 10
85.7250
 20
63.5000
 30
0.0000
 41
1.5240
 42
1.5240
 43
1.0000
 50
0.0000
  0
CIRCLE
  8
44
 10
85.7250
 20
63.5000
 30
0.0000
 40
0.5080
  0
INSERT
  8
17
  2
ROUNDP
 10
83.1850
 20
60.9600
 30
0.0000
 41
1.5240
 42
1.5240
 43
1.0000
 50
0.0000
  0
INSERT
  8
17
  2
ROUNDP
 10
83.1850
 20
60.9600
 30
0.0000
 41
1.5240
 42
1.5240
 43
1.0000
 50
0.0000
  0
CIRCLE
  8
44
 10
83.1850
 20
60.9600
 30
0.0000
 40
0.5080
  0
INSERT
  8
17
  2
ROUNDP
 10
85.7250
 20
60.9600
 30
0.0000
 41
1.5240
 42
1.5240
 43
1.0000
 50
0.0000
  0
INSERT
  8
17
  2
ROUNDP
 10
85.7250
 20
60.9600
 30
0.0000
 41
1.5240
 42
1.5240
 43
1.0000
 50
0.0000
  0
CIRCLE
  8
44
 10
85.7250
 20
60.9600
 30
0.0000
 40
0.5080
  0
INSERT
  8
17
  2
ROUNDP
 10
83.1850
 20
58.4200
 30
0.0000
 41
1.5240
 42
1.5240
 43
1.0000
 50
0.0000
  0
INSERT
  8
17
  2
ROUNDP
 10
83.1850
 20
58.4200
 30
0.0000
 41
1.5240
 42
1.5240
 43
1.0000
 50
0.0000
  0
CIRCLE
  8
44
 10
83.1850
 20
58.4200
 30
0.0000
 40
0.5080
  0
INSERT
  8
17
  2
ROUNDP
 10
85.7250
 20
58.4200
 30
0.0000
 41
1.5240
 42
1.5240
 43
1.0000
 50
0.0000
  0
INSERT
  8
17
  2
ROUNDP
 10
85.7250
 20
58.4200
 30
0.0000
 41
1.5240
 42
1.5240
 43
1.0000
 50
0.0000
  0
CIRCLE
  8
44
 10
85.7250
 20
58.4200
 30
0.0000
 40
0.5080
  0
INSERT
  8
17
  2
ROUNDP
 10
83.1850
 20
55.8800
 30
0.0000
 41
1.5240
 42
1.5240
 43
1.0000
 50
0.0000
  0
INSERT
  8
17
  2
ROUNDP
 10
83.1850
 20
55.8800
 30
0.0000
 41
1.5240
 42
1.5240
 43
1.0000
 50
0.0000
  0
CIRCLE
  8
44
 10
83.1850
 20
55.8800
 30
0.0000
 40
0.5080
  0
INSERT
  8
17
  2
ROUNDP
 10
85.7250
 20
55.8800
 30
0.0000
 41
1.5240
 42
1.5240
 43
1.0000
 50
0.0000
  0
INSERT
  8
17
  2
ROUNDP
 10
85.7250
 20
55.8800
 30
0.0000
 41
1.5240
 42
1.5240
 43
1.0000
 50
0.0000
  0
CIRCLE
  8
44
 10
85.7250
 20
55.8800
 30
0.0000
 40
0.5080
  0
INSERT
  8
17
  2
ROUNDP
 10
83.1850
 20
53.3400
 30
0.0000
 41
1.5240
 42
1.5240
 43
1.0000
 50
0.0000
  0
INSERT
  8
17
  2
ROUNDP
 10
83.1850
 20
53.3400
 30
0.0000
 41
1.5240
 42
1.5240
 43
1.0000
 50
0.0000
  0
CIRCLE
  8
44
 10
83.1850
 20
53.3400
 30
0.0000
 40
0.5080
  0
INSERT
  8
17
  2
ROUNDP
 10
85.7250
 20
53.3400
 30
0.0000
 41
1.5240
 42
1.5240
 43
1.0000
 50
0.0000
  0
INSERT
  8
17
  2
ROUNDP
 10
85.7250
 20
53.3400
 30
0.0000
 41
1.5240
 42
1.5240
 43
1.0000
 50
0.0000
  0
CIRCLE
  8
44
 10
85.7250
 20
53.3400
 30
0.0000
 40
0.5080
  0
INSERT
  8
17
  2
ROUNDP
 10
83.1850
 20
50.8000
 30
0.0000
 41
1.5240
 42
1.5240
 43
1.0000
 50
0.0000
  0
INSERT
  8
17
  2
ROUNDP
 10
83.1850
 20
50.8000
 30
0.0000
 41
1.5240
 42
1.5240
 43
1.0000
 50
0.0000
  0
CIRCLE
  8
44
 10
83.1850
 20
50.8000
 30
0.0000
 40
0.5080
  0
INSERT
  8
17
  2
ROUNDP
 10
85.7250
 20
50.8000
 30
0.0000
 41
1.5240
 42
1.5240
 43
1.0000
 50
0.0000
  0
INSERT
  8
17
  2
ROUNDP
 10
85.7250
 20
50.8000
 30
0.0000
 41
1.5240
 42
1.5240
 43
1.0000
 50
0.0000
  0
CIRCLE
  8
44
 10
85.7250
 20
50.8000
 30
0.0000
 40
0.5080
  0
INSERT
  8
17
  2
ROUNDP
 10
83.1850
 20
48.2600
 30
0.0000
 41
1.5240
 42
1.5240
 43
1.0000
 50
0.0000
  0
INSERT
  8
17
  2
ROUNDP
 10
83.1850
 20
48.2600
 30
0.0000
 41
1.5240
 42
1.5240
 43
1.0000
 50
0.0000
  0
CIRCLE
  8
44
 10
83.1850
 20
48.2600
 30
0.0000
 40
0.5080
  0
INSERT
  8
17
  2
ROUNDP
 10
85.7250
 20
48.2600
 30
0.0000
 41
1.5240
 42
1.5240
 43
1.0000
 50
0.0000
  0
INSERT
  8
17
  2
ROUNDP
 10
85.7250
 20
48.2600
 30
0.0000
 41
1.5240
 42
1.5240
 43
1.0000
 50
0.0000
  0
CIRCLE
  8
44
 10
85.7250
 20
48.2600
 30
0.0000
 40
0.5080
  0
INSERT
  8
17
  2
ROUNDP
 10
83.1850
 20
45.7200
 30
0.0000
 41
1.5240
 42
1.5240
 43
1.0000
 50
0.0000
  0
INSERT
  8
17
  2
ROUNDP
 10
83.1850
 20
45.7200
 30
0.0000
 41
1.5240
 42
1.5240
 43
1.0000
 50
0.0000
  0
CIRCLE
  8
44
 10
83.1850
 20
45.7200
 30
0.0000
 40
0.5080
  0
INSERT
  8
17
  2
ROUNDP
 10
85.7250
 20
45.7200
 30
0.0000
 41
1.5240
 42
1.5240
 43
1.0000
 50
0.0000
  0
INSERT
  8
17
  2
ROUNDP
 10
85.7250
 20
45.7200
 30
0.0000
 41
1.5240
 42
1.5240
 43
1.0000
 50
0.0000
  0
CIRCLE
  8
44
 10
85.7250
 20
45.7200
 30
0.0000
 40
0.5080
  0
INSERT
  8
17
  2
ROUNDP
 10
83.1850
 20
43.1800
 30
0.0000
 41
1.5240
 42
1.5240
 43
1.0000
 50
0.0000
  0
INSERT
  8
17
  2
ROUNDP
 10
83.1850
 20
43.1800
 30
0.0000
 41
1.5240
 42
1.5240
 43
1.0000
 50
0.0000
  0
CIRCLE
  8
44
 10
83.1850
 20
43.1800
 30
0.0000
 40
0.5080
  0
INSERT
  8
17
  2
ROUNDP
 10
85.7250
 20
43.1800
 30
0.0000
 41
1.5240
 42
1.5240
 43
1.0000
 50
0.0000
  0
INSERT
  8
17
  2
ROUNDP
 10
85.7250
 20
43.1800
 30
0.0000
 41
1.5240
 42
1.5240
 43
1.0000
 50
0.0000
  0
CIRCLE
  8
44
 10
85.7250
 20
43.1800
 30
0.0000
 40
0.5080
  0
INSERT
  8
17
  2
ROUNDP
 10
83.1850
 20
40.6400
 30
0.0000
 41
1.5240
 42
1.5240
 43
1.0000
 50
0.0000
  0
INSERT
  8
17
  2
ROUNDP
 10
83.1850
 20
40.6400
 30
0.0000
 41
1.5240
 42
1.5240
 43
1.0000
 50
0.0000
  0
CIRCLE
  8
44
 10
83.1850
 20
40.6400
 30
0.0000
 40
0.5080
  0
INSERT
  8
17
  2
ROUNDP
 10
85.7250
 20
40.6400
 30
0.0000
 41
1.5240
 42
1.5240
 43
1.0000
 50
0.0000
  0
INSERT
  8
17
  2
ROUNDP
 10
85.7250
 20
40.6400
 30
0.0000
 41
1.5240
 42
1.5240
 43
1.0000
 50
0.0000
  0
CIRCLE
  8
44
 10
85.7250
 20
40.6400
 30
0.0000
 40
0.5080
  0
INSERT
  8
17
  2
ROUNDP
 10
83.1850
 20
38.1000
 30
0.0000
 41
1.5240
 42
1.5240
 43
1.0000
 50
0.0000
  0
INSERT
  8
17
  2
ROUNDP
 10
83.1850
 20
38.1000
 30
0.0000
 41
1.5240
 42
1.5240
 43
1.0000
 50
0.0000
  0
CIRCLE
  8
44
 10
83.1850
 20
38.1000
 30
0.0000
 40
0.5080
  0
INSERT
  8
17
  2
ROUNDP
 10
85.7250
 20
38.1000
 30
0.0000
 41
1.5240
 42
1.5240
 43
1.0000
 50
0.0000
  0
INSERT
  8
17
  2
ROUNDP
 10
85.7250
 20
38.1000
 30
0.0000
 41
1.5240
 42
1.5240
 43
1.0000
 50
0.0000
  0
CIRCLE
  8
44
 10
85.7250
 20
38.1000
 30
0.0000
 40
0.5080
  0
INSERT
  8
17
  2
ROUNDP
 10
83.1850
 20
35.5600
 30
0.0000
 41
1.5240
 42
1.5240
 43
1.0000
 50
0.0000
  0
INSERT
  8
17
  2
ROUNDP
 10
83.1850
 20
35.5600
 30
0.0000
 41
1.5240
 42
1.5240
 43
1.0000
 50
0.0000
  0
CIRCLE
  8
44
 10
83.1850
 20
35.5600
 30
0.0000
 40
0.5080
  0
INSERT
  8
17
  2
ROUNDP
 10
85.7250
 20
35.5600
 30
0.0000
 41
1.5240
 42
1.5240
 43
1.0000
 50
0.0000
  0
INSERT
  8
17
  2
ROUNDP
 10
85.7250
 20
35.5600
 30
0.0000
 41
1.5240
 42
1.5240
 43
1.0000
 50
0.0000
  0
CIRCLE
  8
44
 10
85.7250
 20
35.5600
 30
0.0000
 40
0.5080
  0
INSERT
  8
17
  2
ROUNDP
 10
83.1850
 20
33.0200
 30
0.0000
 41
1.5240
 42
1.5240
 43
1.0000
 50
0.0000
  0
INSERT
  8
17
  2
ROUNDP
 10
83.1850
 20
33.0200
 30
0.0000
 41
1.5240
 42
1.5240
 43
1.0000
 50
0.0000
  0
CIRCLE
  8
44
 10
83.1850
 20
33.0200
 30
0.0000
 40
0.5080
  0
INSERT
  8
17
  2
ROUNDP
 10
85.7250
 20
33.0200
 30
0.0000
 41
1.5240
 42
1.5240
 43
1.0000
 50
0.0000
  0
INSERT
  8
17
  2
ROUNDP
 10
85.7250
 20
33.0200
 30
0.0000
 41
1.5240
 42
1.5240
 43
1.0000
 50
0.0000
  0
CIRCLE
  8
44
 10
85.7250
 20
33.0200
 30
0.0000
 40
0.5080
  0
INSERT
  8
17
  2
ROUNDP
 10
83.1850
 20
30.4800
 30
0.0000
 41
1.5240
 42
1.5240
 43
1.0000
 50
0.0000
  0
INSERT
  8
17
  2
ROUNDP
 10
83.1850
 20
30.4800
 30
0.0000
 41
1.5240
 42
1.5240
 43
1.0000
 50
0.0000
  0
CIRCLE
  8
44
 10
83.1850
 20
30.4800
 30
0.0000
 40
0.5080
  0
INSERT
  8
17
  2
ROUNDP
 10
85.7250
 20
30.4800
 30
0.0000
 41
1.5240
 42
1.5240
 43
1.0000
 50
0.0000
  0
INSERT
  8
17
  2
ROUNDP
 10
85.7250
 20
30.4800
 30
0.0000
 41
1.5240
 42
1.5240
 43
1.0000
 50
0.0000
  0
CIRCLE
  8
44
 10
85.7250
 20
30.4800
 30
0.0000
 40
0.5080
  0
INSERT
  8
17
  2
ROUNDP
 10
83.1850
 20
27.9400
 30
0.0000
 41
1.5240
 42
1.5240
 43
1.0000
 50
0.0000
  0
INSERT
  8
17
  2
ROUNDP
 10
83.1850
 20
27.9400
 30
0.0000
 41
1.5240
 42
1.5240
 43
1.0000
 50
0.0000
  0
CIRCLE
  8
44
 10
83.1850
 20
27.9400
 30
0.0000
 40
0.5080
  0
INSERT
  8
17
  2
ROUNDP
 10
85.7250
 20
27.9400
 30
0.0000
 41
1.5240
 42
1.5240
 43
1.0000
 50
0.0000
  0
INSERT
  8
17
  2
ROUNDP
 10
85.7250
 20
27.9400
 30
0.0000
 41
1.5240
 42
1.5240
 43
1.0000
 50
0.0000
  0
CIRCLE
  8
44
 10
85.7250
 20
27.9400
 30
0.0000
 40
0.5080
  0
INSERT
  8
17
  2
ROUNDP
 10
83.1850
 20
25.4000
 30
0.0000
 41
1.5240
 42
1.5240
 43
1.0000
 50
0.0000
  0
INSERT
  8
17
  2
ROUNDP
 10
83.1850
 20
25.4000
 30
0.0000
 41
1.5240
 42
1.5240
 43
1.0000
 50
0.0000
  0
CIRCLE
  8
44
 10
83.1850
 20
25.4000
 30
0.0000
 40
0.5080
  0
INSERT
  8
17
  2
ROUNDP
 10
85.7250
 20
25.4000
 30
0.0000
 41
1.5240
 42
1.5240
 43
1.0000
 50
0.0000
  0
INSERT
  8
17
  2
ROUNDP
 10
85.7250
 20
25.4000
 30
0.0000
 41
1.5240
 42
1.5240
 43
1.0000
 50
0.0000
  0
CIRCLE
  8
44
 10
85.7250
 20
25.4000
 30
0.0000
 40
0.5080
  0
INSERT
  8
17
  2
ROUNDP
 10
83.1850
 20
22.8600
 30
0.0000
 41
1.5240
 42
1.5240
 43
1.0000
 50
0.0000
  0
INSERT
  8
17
  2
ROUNDP
 10
83.1850
 20
22.8600
 30
0.0000
 41
1.5240
 42
1.5240
 43
1.0000
 50
0.0000
  0
CIRCLE
  8
44
 10
83.1850
 20
22.8600
 30
0.0000
 40
0.5080
  0
INSERT
  8
17
  2
ROUNDP
 10
85.7250
 20
22.8600
 30
0.0000
 41
1.5240
 42
1.5240
 43
1.0000
 50
0.0000
  0
INSERT
  8
17
  2
ROUNDP
 10
85.7250
 20
22.8600
 30
0.0000
 41
1.5240
 42
1.5240
 43
1.0000
 50
0.0000
  0
CIRCLE
  8
44
 10
85.7250
 20
22.8600
 30
0.0000
 40
0.5080
  0
INSERT
  8
17
  2
ROUNDP
 10
83.1850
 20
20.3200
 30
0.0000
 41
1.5240
 42
1.5240
 43
1.0000
 50
0.0000
  0
INSERT
  8
17
  2
ROUNDP
 10
83.1850
 20
20.3200
 30
0.0000
 41
1.5240
 42
1.5240
 43
1.0000
 50
0.0000
  0
CIRCLE
  8
44
 10
83.1850
 20
20.3200
 30
0.0000
 40
0.5080
  0
INSERT
  8
17
  2
ROUNDP
 10
85.7250
 20
20.3200
 30
0.0000
 41
1.5240
 42
1.5240
 43
1.0000
 50
0.0000
  0
INSERT
  8
17
  2
ROUNDP
 10
85.7250
 20
20.3200
 30
0.0000
 41
1.5240
 42
1.5240
 43
1.0000
 50
0.0000
  0
CIRCLE
  8
44
 10
85.7250
 20
20.3200
 30
0.0000
 40
0.5080
  0
INSERT
  8
17
  2
ROUNDP
 10
83.1850
 20
17.7800
 30
0.0000
 41
1.5240
 42
1.5240
 43
1.0000
 50
0.0000
  0
INSERT
  8
17
  2
ROUNDP
 10
83.1850
 20
17.7800
 30
0.0000
 41
1.5240
 42
1.5240
 43
1.0000
 50
0.0000
  0
CIRCLE
  8
44
 10
83.1850
 20
17.7800
 30
0.0000
 40
0.5080
  0
INSERT
  8
17
  2
ROUNDP
 10
85.7250
 20
17.7800
 30
0.0000
 41
1.5240
 42
1.5240
 43
1.0000
 50
0.0000
  0
INSERT
  8
17
  2
ROUNDP
 10
85.7250
 20
17.7800
 30
0.0000
 41
1.5240
 42
1.5240
 43
1.0000
 50
0.0000
  0
CIRCLE
  8
44
 10
85.7250
 20
17.7800
 30
0.0000
 40
0.5080
  0
INSERT
  8
17
  2
ROUNDP
 10
83.1850
 20
15.2400
 30
0.0000
 41
1.5240
 42
1.5240
 43
1.0000
 50
0.0000
  0
INSERT
  8
17
  2
ROUNDP
 10
83.1850
 20
15.2400
 30
0.0000
 41
1.5240
 42
1.5240
 43
1.0000
 50
0.0000
  0
CIRCLE
  8
44
 10
83.1850
 20
15.2400
 30
0.0000
 40
0.5080
  0
INSERT
  8
17
  2
ROUNDP
 10
85.7250
 20
15.2400
 30
0.0000
 41
1.5240
 42
1.5240
 43
1.0000
 50
0.0000
  0
INSERT
  8
17
  2
ROUNDP
 10
85.7250
 20
15.2400
 30
0.0000
 41
1.5240
 42
1.5240
 43
1.0000
 50
0.0000
  0
CIRCLE
  8
44
 10
85.7250
 20
15.2400
 30
0.0000
 40
0.5080
  0
INSERT
  8
17
  2
ROUNDP
 10
83.1850
 20
12.7000
 30
0.0000
 41
1.5240
 42
1.5240
 43
1.0000
 50
0.0000
  0
INSERT
  8
17
  2
ROUNDP
 10
83.1850
 20
12.7000
 30
0.0000
 41
1.5240
 42
1.5240
 43
1.0000
 50
0.0000
  0
CIRCLE
  8
44
 10
83.1850
 20
12.7000
 30
0.0000
 40
0.5080
  0
INSERT
  8
17
  2
ROUNDP
 10
85.7250
 20
12.7000
 30
0.0000
 41
1.5240
 42
1.5240
 43
1.0000
 50
0.0000
  0
INSERT
  8
17
  2
ROUNDP
 10
85.7250
 20
12.7000
 30
0.0000
 41
1.5240
 42
1.5240
 43
1.0000
 50
0.0000
  0
CIRCLE
  8
44
 10
85.7250
 20
12.7000
 30
0.0000
 40
0.5080
  0
INSERT
  8
17
  2
ROUNDP
 10
88.2650
 20
76.2000
 30
0.0000
 41
1.5240
 42
1.5240
 43
1.0000
 50
0.0000
  0
INSERT
  8
17
  2
ROUNDP
 10
88.2650
 20
76.2000
 30
0.0000
 41
1.5240
 42
1.5240
 43
1.0000
 50
0.0000
  0
CIRCLE
  8
44
 10
88.2650
 20
76.2000
 30
0.0000
 40
0.5080
  0
INSERT
  8
17
  2
ROUNDP
 10
90.8050
 20
76.2000
 30
0.0000
 41
1.5240
 42
1.5240
 43
1.0000
 50
0.0000
  0
INSERT
  8
17
  2
ROUNDP
 10
90.8050
 20
76.2000
 30
0.0000
 41
1.5240
 42
1.5240
 43
1.0000
 50
0.0000
  0
CIRCLE
  8
44
 10
90.8050
 20
76.2000
 30
0.0000
 40
0.5080
  0
INSERT
  8
17
  2
ROUNDP
 10
88.2650
 20
73.6600
 30
0.0000
 41
1.5240
 42
1.5240
 43
1.0000
 50
0.0000
  0
INSERT
  8
17
  2
ROUNDP
 10
88.2650
 20
73.6600
 30
0.0000
 41
1.5240
 42
1.5240
 43
1.0000
 50
0.0000
  0
CIRCLE
  8
44
 10
88.2650
 20
73.6600
 30
0.0000
 40
0.5080
  0
INSERT
  8
17
  2
ROUNDP
 10
90.8050
 20
73.6600
 30
0.0000
 41
1.5240
 42
1.5240
 43
1.0000
 50
0.0000
  0
INSERT
  8
17
  2
ROUNDP
 10
90.8050
 20
73.6600
 30
0.0000
 41
1.5240
 42
1.5240
 43
1.0000
 50
0.0000
  0
CIRCLE
  8
44
 10
90.8050
 20
73.6600
 30
0.0000
 40
0.5080
  0
INSERT
  8
17
  2
ROUNDP
 10
88.2650
 20
71.1200
 30
0.0000
 41
1.5240
 42
1.5240
 43
1.0000
 50
0.0000
  0
INSERT
  8
17
  2
ROUNDP
 10
88.2650
 20
71.1200
 30
0.0000
 41
1.5240
 42
1.5240
 43
1.0000
 50
0.0000
  0
CIRCLE
  8
44
 10
88.2650
 20
71.1200
 30
0.0000
 40
0.5080
  0
INSERT
  8
17
  2
ROUNDP
 10
90.8050
 20
71.1200
 30
0.0000
 41
1.5240
 42
1.5240
 43
1.0000
 50
0.0000
  0
INSERT
  8
17
  2
ROUNDP
 10
90.8050
 20
71.1200
 30
0.0000
 41
1.5240
 42
1.5240
 43
1.0000
 50
0.0000
  0
CIRCLE
  8
44
 10
90.8050
 20
71.1200
 30
0.0000
 40
0.5080
  0
INSERT
  8
17
  2
ROUNDP
 10
88.2650
 20
68.5800
 30
0.0000
 41
1.5240
 42
1.5240
 43
1.0000
 50
0.0000
  0
INSERT
  8
17
  2
ROUNDP
 10
88.2650
 20
68.5800
 30
0.0000
 41
1.5240
 42
1.5240
 43
1.0000
 50
0.0000
  0
CIRCLE
  8
44
 10
88.2650
 20
68.5800
 30
0.0000
 40
0.5080
  0
INSERT
  8
17
  2
ROUNDP
 10
90.8050
 20
68.5800
 30
0.0000
 41
1.5240
 42
1.5240
 43
1.0000
 50
0.0000
  0
INSERT
  8
17
  2
ROUNDP
 10
90.8050
 20
68.5800
 30
0.0000
 41
1.5240
 42
1.5240
 43
1.0000
 50
0.0000
  0
CIRCLE
  8
44
 10
90.8050
 20
68.5800
 30
0.0000
 40
0.5080
  0
INSERT
  8
17
  2
ROUNDP
 10
88.2650
 20
66.0400
 30
0.0000
 41
1.5240
 42
1.5240
 43
1.0000
 50
0.0000
  0
INSERT
  8
17
  2
ROUNDP
 10
88.2650
 20
66.0400
 30
0.0000
 41
1.5240
 42
1.5240
 43
1.0000
 50
0.0000
  0
CIRCLE
  8
44
 10
88.2650
 20
66.0400
 30
0.0000
 40
0.5080
  0
INSERT
  8
17
  2
ROUNDP
 10
90.8050
 20
66.0400
 30
0.0000
 41
1.5240
 42
1.5240
 43
1.0000
 50
0.0000
  0
INSERT
  8
17
  2
ROUNDP
 10
90.8050
 20
66.0400
 30
0.0000
 41
1.5240
 42
1.5240
 43
1.0000
 50
0.0000
  0
CIRCLE
  8
44
 10
90.8050
 20
66.0400
 30
0.0000
 40
0.5080
  0
INSERT
  8
17
  2
ROUNDP
 10
88.2650
 20
63.5000
 30
0.0000
 41
1.5240
 42
1.5240
 43
1.0000
 50
0.0000
  0
INSERT
  8
17
  2
ROUNDP
 10
88.2650
 20
63.5000
 30
0.0000
 41
1.5240
 42
1.5240
 43
1.0000
 50
0.0000
  0
CIRCLE
  8
44
 10
88.2650
 20
63.5000
 30
0.0000
 40
0.5080
  0
INSERT
  8
17
  2
ROUNDP
 10
90.8050
 20
63.5000
 30
0.0000
 41
1.5240
 42
1.5240
 43
1.0000
 50
0.0000
  0
INSERT
  8
17
  2
ROUNDP
 10
90.8050
 20
63.5000
 30
0.0000
 41
1.5240
 42
1.5240
 43
1.0000
 50
0.0000
  0
CIRCLE
  8
44
 10
90.8050
 20
63.5000
 30
0.0000
 40
0.5080
  0
INSERT
  8
17
  2
ROUNDP
 10
88.2650
 20
60.9600
 30
0.0000
 41
1.5240
 42
1.5240
 43
1.0000
 50
0.0000
  0
INSERT
  8
17
  2
ROUNDP
 10
88.2650
 20
60.9600
 30
0.0000
 41
1.5240
 42
1.5240
 43
1.0000
 50
0.0000
  0
CIRCLE
  8
44
 10
88.2650
 20
60.9600
 30
0.0000
 40
0.5080
  0
INSERT
  8
17
  2
ROUNDP
 10
90.8050
 20
60.9600
 30
0.0000
 41
1.5240
 42
1.5240
 43
1.0000
 50
0.0000
  0
INSERT
  8
17
  2
ROUNDP
 10
90.8050
 20
60.9600
 30
0.0000
 41
1.5240
 42
1.5240
 43
1.0000
 50
0.0000
  0
CIRCLE
  8
44
 10
90.8050
 20
60.9600
 30
0.0000
 40
0.5080
  0
INSERT
  8
17
  2
ROUNDP
 10
88.2650
 20
58.4200
 30
0.0000
 41
1.5240
 42
1.5240
 43
1.0000
 50
0.0000
  0
INSERT
  8
17
  2
ROUNDP
 10
88.2650
 20
58.4200
 30
0.0000
 41
1.5240
 42
1.5240
 43
1.0000
 50
0.0000
  0
CIRCLE
  8
44
 10
88.2650
 20
58.4200
 30
0.0000
 40
0.5080
  0
INSERT
  8
17
  2
ROUNDP
 10
90.8050
 20
58.4200
 30
0.0000
 41
1.5240
 42
1.5240
 43
1.0000
 50
0.0000
  0
INSERT
  8
17
  2
ROUNDP
 10
90.8050
 20
58.4200
 30
0.0000
 41
1.5240
 42
1.5240
 43
1.0000
 50
0.0000
  0
CIRCLE
  8
44
 10
90.8050
 20
58.4200
 30
0.0000
 40
0.5080
  0
INSERT
  8
17
  2
ROUNDP
 10
88.2650
 20
55.8800
 30
0.0000
 41
1.5240
 42
1.5240
 43
1.0000
 50
0.0000
  0
INSERT
  8
17
  2
ROUNDP
 10
88.2650
 20
55.8800
 30
0.0000
 41
1.5240
 42
1.5240
 43
1.0000
 50
0.0000
  0
CIRCLE
  8
44
 10
88.2650
 20
55.8800
 30
0.0000
 40
0.5080
  0
INSERT
  8
17
  2
ROUNDP
 10
90.8050
 20
55.8800
 30
0.0000
 41
1.5240
 42
1.5240
 43
1.0000
 50
0.0000
  0
INSERT
  8
17
  2
ROUNDP
 10
90.8050
 20
55.8800
 30
0.0000
 41
1.5240
 42
1.5240
 43
1.0000
 50
0.0000
  0
CIRCLE
  8
44
 10
90.8050
 20
55.8800
 30
0.0000
 40
0.5080
  0
INSERT
  8
17
  2
ROUNDP
 10
88.2650
 20
53.3400
 30
0.0000
 41
1.5240
 42
1.5240
 43
1.0000
 50
0.0000
  0
INSERT
  8
17
  2
ROUNDP
 10
88.2650
 20
53.3400
 30
0.0000
 41
1.5240
 42
1.5240
 43
1.0000
 50
0.0000
  0
CIRCLE
  8
44
 10
88.2650
 20
53.3400
 30
0.0000
 40
0.5080
  0
INSERT
  8
17
  2
ROUNDP
 10
90.8050
 20
53.3400
 30
0.0000
 41
1.5240
 42
1.5240
 43
1.0000
 50
0.0000
  0
INSERT
  8
17
  2
ROUNDP
 10
90.8050
 20
53.3400
 30
0.0000
 41
1.5240
 42
1.5240
 43
1.0000
 50
0.0000
  0
CIRCLE
  8
44
 10
90.8050
 20
53.3400
 30
0.0000
 40
0.5080
  0
INSERT
  8
17
  2
ROUNDP
 10
88.2650
 20
50.8000
 30
0.0000
 41
1.5240
 42
1.5240
 43
1.0000
 50
0.0000
  0
INSERT
  8
17
  2
ROUNDP
 10
88.2650
 20
50.8000
 30
0.0000
 41
1.5240
 42
1.5240
 43
1.0000
 50
0.0000
  0
CIRCLE
  8
44
 10
88.2650
 20
50.8000
 30
0.0000
 40
0.5080
  0
INSERT
  8
17
  2
ROUNDP
 10
90.8050
 20
50.8000
 30
0.0000
 41
1.5240
 42
1.5240
 43
1.0000
 50
0.0000
  0
INSERT
  8
17
  2
ROUNDP
 10
90.8050
 20
50.8000
 30
0.0000
 41
1.5240
 42
1.5240
 43
1.0000
 50
0.0000
  0
CIRCLE
  8
44
 10
90.8050
 20
50.8000
 30
0.0000
 40
0.5080
  0
INSERT
  8
17
  2
ROUNDP
 10
88.2650
 20
48.2600
 30
0.0000
 41
1.5240
 42
1.5240
 43
1.0000
 50
0.0000
  0
INSERT
  8
17
  2
ROUNDP
 10
88.2650
 20
48.2600
 30
0.0000
 41
1.5240
 42
1.5240
 43
1.0000
 50
0.0000
  0
CIRCLE
  8
44
 10
88.2650
 20
48.2600
 30
0.0000
 40
0.5080
  0
INSERT
  8
17
  2
ROUNDP
 10
90.8050
 20
48.2600
 30
0.0000
 41
1.5240
 42
1.5240
 43
1.0000
 50
0.0000
  0
INSERT
  8
17
  2
ROUNDP
 10
90.8050
 20
48.2600
 30
0.0000
 41
1.5240
 42
1.5240
 43
1.0000
 50
0.0000
  0
CIRCLE
  8
44
 10
90.8050
 20
48.2600
 30
0.0000
 40
0.5080
  0
INSERT
  8
17
  2
ROUNDP
 10
88.2650
 20
45.7200
 30
0.0000
 41
1.5240
 42
1.5240
 43
1.0000
 50
0.0000
  0
INSERT
  8
17
  2
ROUNDP
 10
88.2650
 20
45.7200
 30
0.0000
 41
1.5240
 42
1.5240
 43
1.0000
 50
0.0000
  0
CIRCLE
  8
44
 10
88.2650
 20
45.7200
 30
0.0000
 40
0.5080
  0
INSERT
  8
17
  2
ROUNDP
 10
90.8050
 20
45.7200
 30
0.0000
 41
1.5240
 42
1.5240
 43
1.0000
 50
0.0000
  0
INSERT
  8
17
  2
ROUNDP
 10
90.8050
 20
45.7200
 30
0.0000
 41
1.5240
 42
1.5240
 43
1.0000
 50
0.0000
  0
CIRCLE
  8
44
 10
90.8050
 20
45.7200
 30
0.0000
 40
0.5080
  0
INSERT
  8
17
  2
ROUNDP
 10
88.2650
 20
43.1800
 30
0.0000
 41
1.5240
 42
1.5240
 43
1.0000
 50
0.0000
  0
INSERT
  8
17
  2
ROUNDP
 10
88.2650
 20
43.1800
 30
0.0000
 41
1.5240
 42
1.5240
 43
1.0000
 50
0.0000
  0
CIRCLE
  8
44
 10
88.2650
 20
43.1800
 30
0.0000
 40
0.5080
  0
INSERT
  8
17
  2
ROUNDP
 10
90.8050
 20
43.1800
 30
0.0000
 41
1.5240
 42
1.5240
 43
1.0000
 50
0.0000
  0
INSERT
  8
17
  2
ROUNDP
 10
90.8050
 20
43.1800
 30
0.0000
 41
1.5240
 42
1.5240
 43
1.0000
 50
0.0000
  0
CIRCLE
  8
44
 10
90.8050
 20
43.1800
 30
0.0000
 40
0.5080
  0
INSERT
  8
17
  2
ROUNDP
 10
88.2650
 20
40.6400
 30
0.0000
 41
1.5240
 42
1.5240
 43
1.0000
 50
0.0000
  0
INSERT
  8
17
  2
ROUNDP
 10
88.2650
 20
40.6400
 30
0.0000
 41
1.5240
 42
1.5240
 43
1.0000
 50
0.0000
  0
CIRCLE
  8
44
 10
88.2650
 20
40.6400
 30
0.0000
 40
0.5080
  0
INSERT
  8
17
  2
ROUNDP
 10
90.8050
 20
40.6400
 30
0.0000
 41
1.5240
 42
1.5240
 43
1.0000
 50
0.0000
  0
INSERT
  8
17
  2
ROUNDP
 10
90.8050
 20
40.6400
 30
0.0000
 41
1.5240
 42
1.5240
 43
1.0000
 50
0.0000
  0
CIRCLE
  8
44
 10
90.8050
 20
40.6400
 30
0.0000
 40
0.5080
  0
INSERT
  8
17
  2
ROUNDP
 10
88.2650
 20
38.1000
 30
0.0000
 41
1.5240
 42
1.5240
 43
1.0000
 50
0.0000
  0
INSERT
  8
17
  2
ROUNDP
 10
88.2650
 20
38.1000
 30
0.0000
 41
1.5240
 42
1.5240
 43
1.0000
 50
0.0000
  0
CIRCLE
  8
44
 10
88.2650
 20
38.1000
 30
0.0000
 40
0.5080
  0
INSERT
  8
17
  2
ROUNDP
 10
90.8050
 20
38.1000
 30
0.0000
 41
1.5240
 42
1.5240
 43
1.0000
 50
0.0000
  0
INSERT
  8
17
  2
ROUNDP
 10
90.8050
 20
38.1000
 30
0.0000
 41
1.5240
 42
1.5240
 43
1.0000
 50
0.0000
  0
CIRCLE
  8
44
 10
90.8050
 20
38.1000
 30
0.0000
 40
0.5080
  0
INSERT
  8
17
  2
ROUNDP
 10
88.2650
 20
35.5600
 30
0.0000
 41
1.5240
 42
1.5240
 43
1.0000
 50
0.0000
  0
INSERT
  8
17
  2
ROUNDP
 10
88.2650
 20
35.5600
 30
0.0000
 41
1.5240
 42
1.5240
 43
1.0000
 50
0.0000
  0
CIRCLE
  8
44
 10
88.2650
 20
35.5600
 30
0.0000
 40
0.5080
  0
INSERT
  8
17
  2
ROUNDP
 10
90.8050
 20
35.5600
 30
0.0000
 41
1.5240
 42
1.5240
 43
1.0000
 50
0.0000
  0
INSERT
  8
17
  2
ROUNDP
 10
90.8050
 20
35.5600
 30
0.0000
 41
1.5240
 42
1.5240
 43
1.0000
 50
0.0000
  0
CIRCLE
  8
44
 10
90.8050
 20
35.5600
 30
0.0000
 40
0.5080
  0
INSERT
  8
17
  2
ROUNDP
 10
88.2650
 20
33.0200
 30
0.0000
 41
1.5240
 42
1.5240
 43
1.0000
 50
0.0000
  0
INSERT
  8
17
  2
ROUNDP
 10
88.2650
 20
33.0200
 30
0.0000
 41
1.5240
 42
1.5240
 43
1.0000
 50
0.0000
  0
CIRCLE
  8
44
 10
88.2650
 20
33.0200
 30
0.0000
 40
0.5080
  0
INSERT
  8
17
  2
ROUNDP
 10
90.8050
 20
33.0200
 30
0.0000
 41
1.5240
 42
1.5240
 43
1.0000
 50
0.0000
  0
INSERT
  8
17
  2
ROUNDP
 10
90.8050
 20
33.0200
 30
0.0000
 41
1.5240
 42
1.5240
 43
1.0000
 50
0.0000
  0
CIRCLE
  8
44
 10
90.8050
 20
33.0200
 30
0.0000
 40
0.5080
  0
INSERT
  8
17
  2
ROUNDP
 10
88.2650
 20
30.4800
 30
0.0000
 41
1.5240
 42
1.5240
 43
1.0000
 50
0.0000
  0
INSERT
  8
17
  2
ROUNDP
 10
88.2650
 20
30.4800
 30
0.0000
 41
1.5240
 42
1.5240
 43
1.0000
 50
0.0000
  0
CIRCLE
  8
44
 10
88.2650
 20
30.4800
 30
0.0000
 40
0.5080
  0
INSERT
  8
17
  2
ROUNDP
 10
90.8050
 20
30.4800
 30
0.0000
 41
1.5240
 42
1.5240
 43
1.0000
 50
0.0000
  0
INSERT
  8
17
  2
ROUNDP
 10
90.8050
 20
30.4800
 30
0.0000
 41
1.5240
 42
1.5240
 43
1.0000
 50
0.0000
  0
CIRCLE
  8
44
 10
90.8050
 20
30.4800
 30
0.0000
 40
0.5080
  0
INSERT
  8
17
  2
ROUNDP
 10
88.2650
 20
27.9400
 30
0.0000
 41
1.5240
 42
1.5240
 43
1.0000
 50
0.0000
  0
INSERT
  8
17
  2
ROUNDP
 10
88.2650
 20
27.9400
 30
0.0000
 41
1.5240
 42
1.5240
 43
1.0000
 50
0.0000
  0
CIRCLE
  8
44
 10
88.2650
 20
27.9400
 30
0.0000
 40
0.5080
  0
INSERT
  8
17
  2
ROUNDP
 10
90.8050
 20
27.9400
 30
0.0000
 41
1.5240
 42
1.5240
 43
1.0000
 50
0.0000
  0
INSERT
  8
17
  2
ROUNDP
 10
90.8050
 20
27.9400
 30
0.0000
 41
1.5240
 42
1.5240
 43
1.0000
 50
0.0000
  0
CIRCLE
  8
44
 10
90.8050
 20
27.9400
 30
0.0000
 40
0.5080
  0
INSERT
  8
17
  2
ROUNDP
 10
88.2650
 20
25.4000
 30
0.0000
 41
1.5240
 42
1.5240
 43
1.0000
 50
0.0000
  0
INSERT
  8
17
  2
ROUNDP
 10
88.2650
 20
25.4000
 30
0.0000
 41
1.5240
 42
1.5240
 43
1.0000
 50
0.0000
  0
CIRCLE
  8
44
 10
88.2650
 20
25.4000
 30
0.0000
 40
0.5080
  0
INSERT
  8
17
  2
ROUNDP
 10
90.8050
 20
25.4000
 30
0.0000
 41
1.5240
 42
1.5240
 43
1.0000
 50
0.0000
  0
INSERT
  8
17
  2
ROUNDP
 10
90.8050
 20
25.4000
 30
0.0000
 41
1.5240
 42
1.5240
 43
1.0000
 50
0.0000
  0
CIRCLE
  8
44
 10
90.8050
 20
25.4000
 30
0.0000
 40
0.5080
  0
INSERT
  8
17
  2
ROUNDP
 10
88.2650
 20
22.8600
 30
0.0000
 41
1.5240
 42
1.5240
 43
1.0000
 50
0.0000
  0
INSERT
  8
17
  2
ROUNDP
 10
88.2650
 20
22.8600
 30
0.0000
 41
1.5240
 42
1.5240
 43
1.0000
 50
0.0000
  0
CIRCLE
  8
44
 10
88.2650
 20
22.8600
 30
0.0000
 40
0.5080
  0
INSERT
  8
17
  2
ROUNDP
 10
90.8050
 20
22.8600
 30
0.0000
 41
1.5240
 42
1.5240
 43
1.0000
 50
0.0000
  0
INSERT
  8
17
  2
ROUNDP
 10
90.8050
 20
22.8600
 30
0.0000
 41
1.5240
 42
1.5240
 43
1.0000
 50
0.0000
  0
CIRCLE
  8
44
 10
90.8050
 20
22.8600
 30
0.0000
 40
0.5080
  0
INSERT
  8
17
  2
ROUNDP
 10
88.2650
 20
20.3200
 30
0.0000
 41
1.5240
 42
1.5240
 43
1.0000
 50
0.0000
  0
INSERT
  8
17
  2
ROUNDP
 10
88.2650
 20
20.3200
 30
0.0000
 41
1.5240
 42
1.5240
 43
1.0000
 50
0.0000
  0
CIRCLE
  8
44
 10
88.2650
 20
20.3200
 30
0.0000
 40
0.5080
  0
INSERT
  8
17
  2
ROUNDP
 10
90.8050
 20
20.3200
 30
0.0000
 41
1.5240
 42
1.5240
 43
1.0000
 50
0.0000
  0
INSERT
  8
17
  2
ROUNDP
 10
90.8050
 20
20.3200
 30
0.0000
 41
1.5240
 42
1.5240
 43
1.0000
 50
0.0000
  0
CIRCLE
  8
44
 10
90.8050
 20
20.3200
 30
0.0000
 40
0.5080
  0
INSERT
  8
17
  2
ROUNDP
 10
88.2650
 20
17.7800
 30
0.0000
 41
1.5240
 42
1.5240
 43
1.0000
 50
0.0000
  0
INSERT
  8
17
  2
ROUNDP
 10
88.2650
 20
17.7800
 30
0.0000
 41
1.5240
 42
1.5240
 43
1.0000
 50
0.0000
  0
CIRCLE
  8
44
 10
88.2650
 20
17.7800
 30
0.0000
 40
0.5080
  0
INSERT
  8
17
  2
ROUNDP
 10
90.8050
 20
17.7800
 30
0.0000
 41
1.5240
 42
1.5240
 43
1.0000
 50
0.0000
  0
INSERT
  8
17
  2
ROUNDP
 10
90.8050
 20
17.7800
 30
0.0000
 41
1.5240
 42
1.5240
 43
1.0000
 50
0.0000
  0
CIRCLE
  8
44
 10
90.8050
 20
17.7800
 30
0.0000
 40
0.5080
  0
INSERT
  8
17
  2
ROUNDP
 10
88.2650
 20
15.2400
 30
0.0000
 41
1.5240
 42
1.5240
 43
1.0000
 50
0.0000
  0
INSERT
  8
17
  2
ROUNDP
 10
88.2650
 20
15.2400
 30
0.0000
 41
1.5240
 42
1.5240
 43
1.0000
 50
0.0000
  0
CIRCLE
  8
44
 10
88.2650
 20
15.2400
 30
0.0000
 40
0.5080
  0
INSERT
  8
17
  2
ROUNDP
 10
90.8050
 20
15.2400
 30
0.0000
 41
1.5240
 42
1.5240
 43
1.0000
 50
0.0000
  0
INSERT
  8
17
  2
ROUNDP
 10
90.8050
 20
15.2400
 30
0.0000
 41
1.5240
 42
1.5240
 43
1.0000
 50
0.0000
  0
CIRCLE
  8
44
 10
90.8050
 20
15.2400
 30
0.0000
 40
0.5080
  0
INSERT
  8
17
  2
ROUNDP
 10
88.2650
 20
12.7000
 30
0.0000
 41
1.5240
 42
1.5240
 43
1.0000
 50
0.0000
  0
INSERT
  8
17
  2
ROUNDP
 10
88.2650
 20
12.7000
 30
0.0000
 41
1.5240
 42
1.5240
 43
1.0000
 50
0.0000
  0
CIRCLE
  8
44
 10
88.2650
 20
12.7000
 30
0.0000
 40
0.5080
  0
INSERT
  8
17
  2
ROUNDP
 10
90.8050
 20
12.7000
 30
0.0000
 41
1.5240
 42
1.5240
 43
1.0000
 50
0.0000
  0
INSERT
  8
17
  2
ROUNDP
 10
90.8050
 20
12.7000
 30
0.0000
 41
1.5240
 42
1.5240
 43
1.0000
 50
0.0000
  0
CIRCLE
  8
44
 10
90.8050
 20
12.7000
 30
0.0000
 40
0.5080
  0
INSERT
  8
17
  2
ROUNDP
 10
5.0800
 20
85.0900
 30
0.0000
 41
6.3500
 42
6.3500
 43
1.0000
 50
0.0000
  0
INSERT
  8
17
  2
ROUNDP
 10
5.0800
 20
85.0900
 30
0.0000
 41
6.3500
 42
6.3500
 43
1.0000
 50
0.0000
  0
CIRCLE
  8
44
 10
5.0800
 20
85.0900
 30
0.0000
 40
1.5875
  0
INSERT
  8
17
  2
ROUNDP
 10
5.0800
 20
5.0800
 30
0.0000
 41
6.3500
 42
6.3500
 43
1.0000
 50
0.0000
  0
INSERT
  8
17
  2
ROUNDP
 10
5.0800
 20
5.0800
 30
0.0000
 41
6.3500
 42
6.3500
 43
1.0000
 50
0.0000
  0
CIRCLE
  8
44
 10
5.0800
 20
5.0800
 30
0.0000
 40
1.5875
  0
INSERT
  8
17
  2
ROUNDP
 10
90.8050
 20
81.2800
 30
0.0000
 41
6.3500
 42
6.3500
 43
1.0000
 50
0.0000
  0
INSERT
  8
17
  2
ROUNDP
 10
90.8050
 20
81.2800
 30
0.0000
 41
6.3500
 42
6.3500
 43
1.0000
 50
0.0000
  0
CIRCLE
  8
44
 10
90.8050
 20
81.2800
 30
0.0000
 40
1.5875
  0
INSERT
  8
17
  2
ROUNDP
 10
90.8050
 20
7.6200
 30
0.0000
 41
6.3500
 42
6.3500
 43
1.0000
 50
0.0000
  0
INSERT
  8
17
  2
ROUNDP
 10
90.8050
 20
7.6200
 30
0.0000
 41
6.3500
 42
6.3500
 43
1.0000
 50
0.0000
  0
CIRCLE
  8
44
 10
90.8050
 20
7.6200
 30
0.0000
 40
1.5875
  0
INSERT
  8
18
  2
ROUNDV
 10
19.0500
 20
43.1800
 30
0.0000
 41
0.5080
 42
0.5080
 43
1.0000
 50
0.0000
  0
INSERT
  8
18
  2
ROUNDV
 10
19.0500
 20
43.1800
 30
0.0000
 41
0.5080
 42
0.5080
 43
1.0000
 50
0.0000
  0
CIRCLE
  8
44
 10
19.0500
 20
43.1800
 30
0.0000
 40
0.1270
  0
INSERT
  8
18
  2
ROUNDV
 10
64.1350
 20
81.2800
 30
0.0000
 41
0.5080
 42
0.5080
 43
1.0000
 50
0.0000
  0
INSERT
  8
18
  2
ROUNDV
 10
64.1350
 20
81.2800
 30
0.0000
 41
0.5080
 42
0.5080
 43
1.0000
 50
0.0000
  0
CIRCLE
  8
44
 10
64.1350
 20
81.2800
 30
0.0000
 40
0.1270
  0
INSERT
  8
18
  2
ROUNDV
 10
66.5480
 20
81.2800
 30
0.0000
 41
0.5080
 42
0.5080
 43
1.0000
 50
0.0000
  0
INSERT
  8
18
  2
ROUNDV
 10
66.5480
 20
81.2800
 30
0.0000
 41
0.5080
 42
0.5080
 43
1.0000
 50
0.0000
  0
CIRCLE
  8
44
 10
66.5480
 20
81.2800
 30
0.0000
 40
0.1270
  0
ENDSEC
  0
EOF
